<svg xmlns="http://www.w3.org/2000/svg" viewBox="0 0 1200 320" role="img" aria-label="Grok Build Blender MCP Plugin">
  <defs>
    <linearGradient id="bg" x1="0%" y1="0%" x2="100%" y2="100%">
      <stop offset="0%" stop-color="#0B0F19"/>
      <stop offset="50%" stop-color="#111827"/>
      <stop offset="100%" stop-color="#1E1B4B"/>
    </linearGradient>
    <linearGradient id="accent" x1="0%" y1="0%" x2="100%" y2="0%">
      <stop offset="0%" stop-color="#F97316"/>
      <stop offset="50%" stop-color="#E879F9"/>
      <stop offset="100%" stop-color="#38BDF8"/>
    </linearGradient>
    <filter id="glow" x="-20%" y="-20%" width="140%" height="140%">
      <feGaussianBlur stdDeviation="8" result="b"/>
      <feMerge>
        <feMergeNode in="b"/>
        <feMergeNode in="SourceGraphic"/>
      </feMerge>
    </filter>
  </defs>
  <rect width="1200" height="320" fill="url(#bg)"/>
  <circle cx="180" cy="160" r="120" fill="#F97316" opacity="0.08"/>
  <circle cx="1020" cy="80" r="140" fill="#38BDF8" opacity="0.08"/>
  <circle cx="700" cy="260" r="100" fill="#E879F9" opacity="0.07"/>

  <!-- Grok mark -->
  <g transform="translate(220,70)">
    <rect width="120" height="120" rx="26" fill="#0A0A0A" stroke="#333" stroke-width="2"/>
    <circle cx="60" cy="52" r="28" fill="none" stroke="#E5E5E5" stroke-width="5"/>
    <path d="M40 66c6 10 34 10 40 0" fill="none" stroke="#E5E5E5" stroke-width="5" stroke-linecap="round"/>
    <circle cx="48" cy="44" r="4" fill="#E5E5E5"/>
    <circle cx="72" cy="44" r="4" fill="#E5E5E5"/>
    <text x="60" y="104" text-anchor="middle" font-family="ui-sans-serif,system-ui,sans-serif" font-size="14" font-weight="700" fill="#A3A3A3">GROK</text>
  </g>

  <!-- plus -->
  <text x="400" y="150" text-anchor="middle" font-family="ui-sans-serif,system-ui,sans-serif" font-size="48" font-weight="300" fill="#6B7280">+</text>

  <!-- Blender orange disc -->
  <g transform="translate(460,70)">
    <circle cx="60" cy="60" r="56" fill="#E87D0D"/>
    <ellipse cx="60" cy="60" rx="40" ry="16" fill="none" stroke="#fff" stroke-width="6" opacity="0.95"/>
    <ellipse cx="60" cy="60" rx="16" ry="40" fill="none" stroke="#fff" stroke-width="6" opacity="0.95" transform="rotate(60 60 60)"/>
    <ellipse cx="60" cy="60" rx="16" ry="40" fill="none" stroke="#fff" stroke-width="6" opacity="0.95" transform="rotate(-60 60 60)"/>
    <circle cx="60" cy="60" r="10" fill="#fff"/>
  </g>

  <!-- equals / arrow -->
  <text x="660" y="150" text-anchor="middle" font-family="ui-sans-serif,system-ui,sans-serif" font-size="40" font-weight="300" fill="#6B7280">→</text>

  <!-- MCP cube-ish -->
  <g transform="translate(720,70)">
    <rect width="120" height="120" rx="26" fill="#0F172A" stroke="#38BDF8" stroke-width="2"/>
    <path d="M28 74V46l32-16 32 16v28l-32 16-32-16z" fill="none" stroke="#38BDF8" stroke-width="4"/>
    <circle cx="60" cy="58" r="6" fill="#F0F9FF"/>
    <text x="60" y="104" text-anchor="middle" font-family="ui-sans-serif,system-ui,sans-serif" font-size="14" font-weight="700" fill="#7DD3FC">MCP</text>
  </g>

  <text x="600" y="250" text-anchor="middle" font-family="ui-sans-serif,system-ui,sans-serif" font-size="34" font-weight="700" fill="#F9FAFB" filter="url(#glow)">Grok Build × Blender Lab MCP</text>
  <text x="600" y="288" text-anchor="middle" font-family="ui-sans-serif,system-ui,sans-serif" font-size="16" fill="#9CA3AF">Control a live Blender session from Grok via Model Context Protocol</text>
  <rect x="420" y="300" width="360" height="4" rx="2" fill="url(#accent)" opacity="0.9"/>
</svg>
